<svg width="25" height="25" viewBox="0 0 25 25" fill="none" xmlns="http://www.w3.org/2000/svg">
<path d="M20.9334 5.78844C18.9134 4.1651 15.7192 3.8901 15.5842 3.87844C15.3709 3.8601 15.1684 3.98094 15.0809 4.17594C15.0775 4.1826 14.8992 4.7001 14.7267 5.19927C17.0742 5.6101 18.6692 6.52177 18.7542 6.57177C19.1525 6.80344 19.2859 7.31427 19.0534 7.71177C18.8992 7.97677 18.62 8.1251 18.3334 8.1251C18.1909 8.1251 18.0475 8.08927 17.9159 8.0126C17.8925 7.99844 15.5525 6.66677 12.5017 6.66677C9.45004 6.66677 7.10921 7.99927 7.08587 8.0126C6.68837 8.24344 6.17837 8.1076 5.94754 7.70927C5.71671 7.3126 5.85087 6.80344 6.24754 6.57177C6.33254 6.52177 7.93337 5.60677 10.2875 5.19677C10.1059 4.69177 9.92254 4.1826 9.91921 4.17594C9.83171 3.9801 9.62921 3.85677 9.41587 3.87844C9.28087 3.88927 6.08671 4.16427 4.04004 5.8101C2.97004 6.79844 0.833374 12.5768 0.833374 17.5726C0.833374 17.6609 0.855874 17.7468 0.900041 17.8234C2.37587 20.4151 6.39921 21.0934 7.31587 21.1226C7.32171 21.1234 7.32671 21.1234 7.33171 21.1234C7.49337 21.1234 7.64587 21.0459 7.74171 20.9151L8.73337 19.5718C6.55837 19.0476 5.40837 18.2234 5.33921 18.1726C4.96921 17.9001 4.88921 17.3784 5.16171 17.0076C5.43337 16.6384 5.95337 16.5568 6.32337 16.8276C6.35421 16.8476 8.47671 18.3334 12.5 18.3334C16.5392 18.3334 18.6559 16.8418 18.6767 16.8268C19.0467 16.5584 19.5684 16.6393 19.8392 17.0109C20.1092 17.3809 20.0309 17.8993 19.6625 18.1709C19.5934 18.2218 18.4492 19.0443 16.2792 19.5684L17.2584 20.9143C17.3542 21.0459 17.5067 21.1226 17.6684 21.1226C17.6742 21.1226 17.6792 21.1226 17.6842 21.1218C18.6017 21.0926 22.625 20.4143 24.1 17.8226C24.1442 17.7459 24.1667 17.6601 24.1667 17.5718C24.1667 12.5768 22.03 6.79844 20.9334 5.78844ZM9.16671 15.8334C8.24587 15.8334 7.50004 14.9009 7.50004 13.7501C7.50004 12.5993 8.24587 11.6668 9.16671 11.6668C10.0875 11.6668 10.8334 12.5993 10.8334 13.7501C10.8334 14.9009 10.0875 15.8334 9.16671 15.8334ZM15.8334 15.8334C14.9125 15.8334 14.1667 14.9009 14.1667 13.7501C14.1667 12.5993 14.9125 11.6668 15.8334 11.6668C16.7542 11.6668 17.5 12.5993 17.5 13.7501C17.5 14.9009 16.7542 15.8334 15.8334 15.8334Z" fill="white"/>
</svg>
