<svg width="116" height="23" viewBox="0 0 116 23" fill="none" xmlns="http://www.w3.org/2000/svg">
<path d="M24.549 1.8788C22.6731 1.0011 20.6672 0.363215 18.5702 0C18.3126 0.465629 18.0117 1.09191 17.8043 1.59011C15.5751 1.25487 13.3663 1.25487 11.1781 1.59011C10.9707 1.09191 10.663 0.465629 10.4031 0C8.30381 0.363215 6.29566 1.00344 4.41972 1.88345C0.635926 7.60126 -0.389798 13.177 0.123065 18.6737C2.63268 20.5478 5.06479 21.6862 7.45586 22.4312C8.04623 21.6187 8.57276 20.755 9.02635 19.8447C8.16247 19.5164 7.33505 19.1114 6.55325 18.6411C6.76065 18.4874 6.96354 18.3268 7.15954 18.1615C11.928 20.3918 17.1091 20.3918 21.8206 18.1615C22.0189 18.3268 22.2217 18.4874 22.4269 18.6411C21.6428 19.1137 20.8131 19.5187 19.9492 19.847C20.4028 20.755 20.9271 21.621 21.5197 22.4335C23.9131 21.6885 26.3475 20.5501 28.8571 18.6737C29.4588 12.3017 27.8291 6.7771 24.549 1.8788ZM9.67599 15.2933C8.24454 15.2933 7.07064 13.9569 7.07064 12.3296C7.07064 10.7023 8.21947 9.36362 9.67599 9.36362C11.1325 9.36362 12.3064 10.6999 12.2813 12.3296C12.2836 13.9569 11.1325 15.2933 9.67599 15.2933ZM19.3041 15.2933C17.8727 15.2933 16.6988 13.9569 16.6988 12.3296C16.6988 10.7023 17.8476 9.36362 19.3041 9.36362C20.7607 9.36362 21.9346 10.6999 21.9095 12.3296C21.9095 13.9569 20.7607 15.2933 19.3041 15.2933Z" fill="white"/>
<path d="M38.9431 5.7229H45.1657C46.6657 5.7229 47.933 5.96269 48.9726 6.43996C50.0095 6.91718 50.7869 7.58303 51.3022 8.43512C51.817 9.2872 52.0768 10.2627 52.0768 11.3615C52.0768 12.4371 51.8079 13.4126 51.27 14.2856C50.7321 15.161 49.9137 15.8524 48.8129 16.3623C47.7121 16.8721 46.3487 17.1282 44.7192 17.1282H38.9431V5.7229ZM44.6552 14.2298C45.665 14.2298 46.4425 13.9713 46.9847 13.4568C47.5274 12.94 47.7987 12.2369 47.7987 11.3452C47.7987 10.5187 47.5568 9.85989 47.0737 9.36633C46.5907 8.87278 45.8589 8.62369 44.8808 8.62369H42.9343V14.2298H44.6552Z" fill="white"/>
<path d="M61.393 17.1143C60.5314 16.8862 59.7539 16.5556 59.0635 16.1202V13.415C59.5855 13.827 60.2851 14.1669 61.1626 14.4347C62.0401 14.7001 62.8883 14.8328 63.7086 14.8328C64.0916 14.8328 64.3812 14.7815 64.5771 14.6791C64.7733 14.5767 64.8714 14.4533 64.8714 14.3113C64.8714 14.1483 64.819 14.0133 64.7117 13.9038C64.6045 13.7944 64.3971 13.7036 64.0896 13.6268L62.1748 13.1868C61.0784 12.9261 60.3009 12.5652 59.8385 12.1019C59.3757 11.6409 59.1453 11.0356 59.1453 10.286C59.1453 9.65506 59.3459 9.108 59.7519 8.64003C60.1551 8.17209 60.7296 7.81122 61.4748 7.55745C62.2205 7.30138 63.0909 7.17334 64.0916 7.17334C64.985 7.17334 65.8034 7.27111 66.5491 7.46668C67.2943 7.66225 67.9097 7.91133 68.3999 8.21631V10.7749C67.8981 10.4699 67.3237 10.2301 66.6674 10.0485C66.0131 9.86927 65.341 9.7808 64.6478 9.7808C63.6471 9.7808 63.1481 9.95539 63.1481 10.3023C63.1481 10.4653 63.2256 10.5863 63.3805 10.6678C63.5354 10.7493 63.8203 10.8331 64.233 10.9216L65.8284 11.2149C66.8704 11.3988 67.6475 11.7224 68.158 12.1834C68.6688 12.6444 68.9239 13.3265 68.9239 14.2298C68.9239 15.2192 68.5024 16.0038 67.6566 16.5858C66.8108 17.1679 65.6119 17.4588 64.0574 17.4588C63.1433 17.4565 62.2547 17.3424 61.393 17.1143Z" fill="white"/>
<path d="M72.6899 16.772C71.7762 16.3156 71.0854 15.6964 70.625 14.9141C70.1645 14.1319 69.9321 13.2519 69.9321 12.2741C69.9321 11.2963 70.1713 10.4209 70.65 9.65031C71.1287 8.8797 71.8306 8.2744 72.7563 7.83439C73.6815 7.39439 74.787 7.17554 76.075 7.17554C77.6704 7.17554 78.9948 7.51778 80.048 8.20222V11.1845C79.6765 10.9238 79.2431 10.7119 78.7485 10.549C78.2539 10.386 77.7252 10.3045 77.1599 10.3045C76.1707 10.3045 75.398 10.4884 74.8395 10.8586C74.2809 11.2287 74.0009 11.7107 74.0009 12.309C74.0009 12.8956 74.2718 13.3753 74.8145 13.7524C75.3571 14.1272 76.1433 14.3158 77.1758 14.3158C77.7069 14.3158 78.2313 14.2366 78.7485 14.0807C79.2638 13.9224 79.7083 13.7291 80.0797 13.501V16.3855C78.9106 17.1025 77.5544 17.461 76.011 17.461C74.712 17.4564 73.604 17.2282 72.6899 16.772Z" fill="white"/>
<path d="M84.0277 16.7722C83.1069 16.3159 82.4049 15.692 81.9214 14.8981C81.4384 14.1042 81.1945 13.2195 81.1945 12.2417C81.1945 11.264 81.436 10.3909 81.9214 9.62498C82.4069 8.85902 83.1045 8.25836 84.021 7.82301C84.9347 7.38765 86.0267 7.17114 87.2916 7.17114C88.5569 7.17114 89.6486 7.38765 90.5627 7.82301C91.4767 8.25836 92.1743 8.85437 92.653 9.61564C93.1317 10.377 93.3709 11.25 93.3709 12.2394C93.3709 13.2172 93.1317 14.1019 92.653 14.8957C92.1743 15.6896 91.4744 16.3136 90.5535 16.7699C89.6327 17.2262 88.5454 17.4543 87.2896 17.4543C86.0335 17.4543 84.9462 17.2285 84.0277 16.7722ZM88.8759 13.8807C89.2636 13.485 89.4595 12.9611 89.4595 12.3093C89.4595 11.6574 89.2656 11.1382 88.8759 10.7541C88.4886 10.3676 87.9594 10.1744 87.2896 10.1744C86.6079 10.1744 86.0744 10.3676 85.6847 10.7541C85.2974 11.1406 85.1035 11.6574 85.1035 12.3093C85.1035 12.9611 85.2974 13.485 85.6847 13.8807C86.0724 14.2765 86.6079 14.4767 87.2896 14.4767C87.9594 14.4744 88.4886 14.2765 88.8759 13.8807Z" fill="white"/>
<path d="M102.958 7.77636V11.2964C102.552 11.024 102.028 10.889 101.379 10.889C100.528 10.889 99.8717 11.1521 99.4157 11.6782C98.9576 12.2044 98.7296 13.0239 98.7296 14.132V17.1306H94.8206V7.59711H98.6501V10.6283C98.8619 9.52009 99.2063 8.70297 99.6802 8.17445C100.152 7.64832 100.763 7.38525 101.506 7.38525C102.069 7.38525 102.552 7.51564 102.958 7.77636Z" fill="white"/>
<path d="M115.946 5.39722V17.1308H112.036V14.996C111.706 15.7992 111.205 16.4115 110.53 16.8305C109.855 17.2473 109.021 17.4568 108.032 17.4568C107.147 17.4568 106.377 17.2379 105.718 16.7979C105.059 16.3579 104.551 15.7549 104.193 14.989C103.838 14.223 103.657 13.357 103.657 12.3885C103.646 11.3898 103.835 10.4934 104.225 9.69955C104.613 8.90566 105.162 8.28641 105.869 7.84172C106.575 7.39706 107.382 7.17357 108.287 7.17357C110.149 7.17357 111.398 8.00003 112.036 9.65064V5.39722H115.946ZM111.453 13.8156C111.852 13.4198 112.05 12.9054 112.05 12.2768C112.05 11.6691 111.857 11.1732 111.469 10.7938C111.081 10.4143 110.55 10.2234 109.883 10.2234C109.224 10.2234 108.697 10.4166 108.303 10.8031C107.909 11.1895 107.713 11.6901 107.713 12.3093C107.713 12.9286 107.909 13.4338 108.303 13.8249C108.697 14.216 109.217 14.4116 109.867 14.4116C110.525 14.4093 111.054 14.2114 111.453 13.8156Z" fill="white"/>
<path d="M55.3708 8.61207C56.447 8.61207 57.3198 7.81155 57.3198 6.82408C57.3198 5.83661 56.447 5.03613 55.3708 5.03613C54.2943 5.03613 53.4219 5.83661 53.4219 6.82408C53.4219 7.81155 54.2943 8.61207 55.3708 8.61207Z" fill="white"/>
<path d="M53.4204 9.84375C54.6146 10.3699 56.0964 10.3932 57.3179 9.84375V17.1819H53.4204V9.84375Z" fill="white"/>
</svg>
